HIERARCHY
ROOT hip
{
	OFFSET 0.000000 0.000000 0.000000 
	CHANNELS 6 Xposition Yposition Zposition Xrotation Zrotation Yrotation
	JOINT abdomen
	{
		OFFSET 0.000000 3.402643 0.000000 
		CHANNELS 3 Xrotation Zrotation Yrotation
		JOINT chest
		{
			OFFSET 0.000000 8.438565 -0.680529 
			CHANNELS 3 Xrotation Zrotation Yrotation
			JOINT neck
			{
				OFFSET 0.000000 10.207942 -0.272212 
				CHANNELS 3 Xrotation Zrotation Yrotation
				JOINT head
				{
					OFFSET 0.000000 3.130431 0.000000 
					CHANNELS 3 Xrotation Zrotation Yrotation
					End Site
					{
						OFFSET 0.000000 3.130435 0.000000 
					}
				}
			}
			JOINT lCollar
			{
				OFFSET 3.470700 6.669187 -0.816635 
				CHANNELS 3 Yrotation Zrotation Xrotation
				JOINT lShldr
				{
					OFFSET 3.198488 0.000000 0.000000 
					CHANNELS 3 Zrotation Yrotation Xrotation
					JOINT lForeArm
					{
						OFFSET 10.139888 0.000000 0.000000 
						CHANNELS 3 Yrotation Zrotation Xrotation
						JOINT lHand
						{
							OFFSET 8.370511 0.000000 0.000000 
							CHANNELS 3 Zrotation Yrotation Xrotation
							End Site
							{
								OFFSET 4.083176 0.000000 0.000000 
							}
						}
					}
				}
			}
			JOINT rCollar
			{
				OFFSET -3.470700 6.669187 -0.816635 
				CHANNELS 3 Yrotation Zrotation Xrotation
				JOINT rShldr
				{
					OFFSET -3.198488 0.000000 0.000000 
					CHANNELS 3 Zrotation Yrotation Xrotation
					JOINT rForeArm
					{
						OFFSET -10.139888 0.000000 0.000000 
						CHANNELS 3 Yrotation Zrotation Xrotation
						JOINT rHand
						{
							OFFSET -8.370511 0.000000 0.000000 
							CHANNELS 3 Zrotation Yrotation Xrotation
							End Site
							{
								OFFSET -4.083176 0.000000 0.000000 
							}
						}
					}
				}
			}
		}
	}
	JOINT lThigh
	{
		OFFSET 5.308129 -1.633274 1.361059 
		CHANNELS 3 Xrotation Zrotation Yrotation
		JOINT lShin
		{
			OFFSET -2.041588 -20.007561 0.000000 
			CHANNELS 3 Xrotation Zrotation Yrotation
			JOINT lFoot
			{
				OFFSET 0.000000 -19.190928 -1.224953 
				CHANNELS 3 Xrotation Yrotation Zrotation
				End Site
				{
					OFFSET 0.000000 -2.449906 4.627600 
				}
			}
		}
	}
	JOINT rThigh
	{
		OFFSET -5.308129 -1.633274 1.361059 
		CHANNELS 3 Xrotation Zrotation Yrotation
		JOINT rShin
		{
			OFFSET 2.041588 -20.007561 0.000000 
			CHANNELS 3 Xrotation Zrotation Yrotation
			JOINT rFoot
			{
				OFFSET 0.000000 -19.190928 -1.224953 
				CHANNELS 3 Xrotation Yrotation Zrotation
				End Site
				{
					OFFSET 0.000000 -2.449906 4.627600 
				}
			}
		}
	}
}
MOTION
Frames: 10
Frame Time: 0.033333
-0.613525 49.276714 5.847836 14.828974 -2.223208 3.146708 0.000000 0.000000 0.000000 -3.842402 1.037724 6.729706 22.327274 15.456397 1.075792 -1.149076 -6.429789 -30.752029 -7.527092 29.994581 24.994930 -128.094376 -26.774633 10.578841 -35.195805 -3.125820 30.341053 -5.478858 12.936572 48.806259 -28.954853 -14.832144 16.067678 66.419449 5.413960 69.250679 18.290020 -18.618013 -24.451817 31.488459 -6.108641 -10.728901 -8.682755 25.521938 26.915464 54.284184 -14.059274 -5.660655 1.716393 15.390791 -29.107388 -7.775498 3.004336 2.264774 7.786897 1.306155 0.098338 -6.865040 -13.520524 30.593582 
-0.742296 49.287785 5.844851 14.117396 -2.048736 2.560099 0.000000 0.000000 0.000000 -3.189481 2.035735 6.947975 23.060913 13.396832 0.904766 -1.802802 -5.655959 -30.142889 -1.982897 29.991259 24.989967 -121.929543 -20.070551 7.533378 -33.281418 0.771085 18.392731 3.307650 15.212443 51.200756 -26.641376 -16.469820 16.001091 66.909607 6.446146 69.351006 18.514317 -21.048296 -25.455194 31.080301 -4.414986 -10.378510 -11.885362 27.833956 27.734404 59.024418 -14.782739 -6.054029 3.308803 16.654640 -28.455578 -5.109678 3.968338 2.466470 7.238578 1.032754 0.000258 -7.822278 -12.532209 29.628803 
-0.777755 49.257317 5.766173 13.400263 -2.010619 1.895420 0.000000 0.000000 0.000000 -2.248445 3.293980 7.228938 23.626612 11.131940 0.727759 -2.315456 -4.783378 -29.615410 3.512508 29.995472 21.857601 -116.141739 -14.369895 4.631578 -31.572693 3.380996 5.450510 11.541832 15.398048 53.058098 -23.915968 -18.225304 16.176910 66.898201 7.582163 69.123993 19.071198 -24.514652 -25.411524 30.710720 -2.569411 -9.902367 -15.732555 29.353916 27.975021 62.549164 -14.577246 -6.148772 4.385534 17.398373 -27.933702 -2.400187 4.780528 2.614537 6.649103 0.887432 -0.072536 -8.754885 -11.422572 29.256371 
-0.775587 49.190918 5.634141 12.556828 -2.411579 1.202163 0.000000 0.000000 0.000000 -0.944805 4.937085 7.587536 23.956165 9.081599 0.565077 -2.795923 -3.920437 -29.049255 8.540560 29.991043 18.776138 -110.617409 -9.822774 1.724885 -29.909136 4.415271 -5.290148 16.708515 14.721037 53.452461 -20.947395 -19.812267 16.658634 66.328606 8.985908 68.511009 19.386194 -27.845924 -25.540295 29.880039 -1.038981 -9.493823 -19.784517 30.393017 27.847412 64.661514 -13.491016 -5.959800 5.240153 17.509197 -27.428892 0.361523 5.916924 2.886480 6.077704 0.750157 -0.142565 -9.669308 -10.349402 29.067669 
-0.749365 49.102184 5.443829 11.459395 -3.193355 0.097505 0.000000 0.000000 0.000000 0.954116 6.808787 7.996559 24.103962 7.118957 0.414256 -3.286009 -2.898712 -27.968849 13.386203 29.997377 15.877965 -105.182869 -5.599689 -1.366796 -28.450676 4.096074 -11.525426 17.688263 14.359752 52.599098 -17.592583 -21.237820 17.506674 65.614616 11.641907 67.570595 18.439772 -29.529913 -26.743971 27.928509 0.220469 -9.262781 -23.495560 30.729349 27.329668 64.916641 -11.508951 -5.498716 5.797736 16.577364 -27.052858 3.329036 7.516753 3.281726 5.551924 0.458306 -0.262876 -10.605001 -8.935844 28.505716 
-0.661285 49.021824 5.235010 10.067481 -3.924338 -1.556445 0.000000 0.000000 0.000000 3.504939 8.628643 8.396629 24.190317 4.775348 0.245732 -3.757787 -1.629443 -26.232340 18.062380 29.990965 13.152182 -99.476723 -1.027506 -4.897904 -27.119493 2.818141 -13.273686 16.372698 14.189072 51.275620 -13.763572 -22.785095 18.649225 64.971664 15.590402 66.436104 16.130133 -29.822962 -28.625856 25.512411 0.971933 -9.279527 -26.394356 30.118908 26.393206 63.389851 -9.253669 -4.870849 5.907974 15.133520 -25.885883 6.939888 9.009412 3.643033 4.598286 0.078042 -0.409216 -11.409114 -6.771678 27.907644 
-0.470601 48.942516 4.985920 9.506228 -4.442551 -3.957647 0.000000 0.000000 0.000000 5.523330 10.253119 8.744934 24.102921 1.992187 0.039378 -4.012821 -0.268137 -23.760086 22.675262 29.993977 10.476707 -94.400505 4.041729 -8.410439 -25.984917 1.112141 -11.649348 14.543271 13.903111 50.011936 -9.480153 -24.716888 20.086794 64.727837 20.443851 65.334938 12.886763 -29.336670 -30.041080 23.360561 1.271983 -9.372880 -29.070549 28.696415 25.099287 60.051140 -7.202459 -4.252711 5.690405 13.465246 -24.218197 9.655708 10.095298 3.913009 3.871688 -0.273158 -0.540731 -12.238287 -3.992659 27.622896 
-0.185321 48.861572 4.649767 10.268822 -4.455753 -7.317516 0.000000 0.000000 0.000000 6.542938 11.414019 9.007717 23.755035 -1.406241 -0.205256 -3.965878 1.107799 -20.365282 27.320211 29.988905 7.797189 -90.058151 9.636336 -11.922241 -24.846027 -0.837144 -9.163738 13.268991 13.422148 49.015396 -4.402853 -27.230066 22.086674 64.934120 26.161444 64.253395 9.272082 -28.624660 -30.404720 21.634447 1.267598 -9.444412 -32.047050 26.935827 23.659441 55.351929 -5.707591 -3.758839 5.650765 11.767850 -23.199345 10.620615 10.601463 4.060656 3.848056 -0.604834 -0.634779 -13.148994 -0.617054 27.664871 
0.190494 48.790878 4.297361 11.821200 -3.820461 -11.354021 0.000000 0.000000 0.000000 6.913917 11.979183 9.146170 23.126789 -4.980301 -0.471219 -3.789619 2.350956 -16.449762 31.366827 29.990784 5.469084 -87.040375 15.144238 -15.025173 -23.441898 -2.467242 -7.776384 12.605991 12.837439 48.269310 0.948955 -30.000000 24.579948 65.574089 32.355843 63.219139 6.074667 -27.973211 -29.964050 20.841597 1.585908 -9.365414 -34.303852 25.298164 22.440437 49.719948 -5.890192 -3.524212 5.127979 11.280936 -23.422667 10.486849 10.525985 4.035936 4.229046 -0.965047 -0.697539 -14.159330 3.075480 27.607111 
0.585243 48.718693 4.020257 13.685889 -3.127847 -15.277521 0.000000 0.000000 0.000000 6.765839 12.504984 9.295022 22.421690 -8.114654 -0.690534 -3.622594 3.312174 -12.951159 34.214199 29.993109 3.772207 -85.227928 20.148239 -17.690510 -21.816175 -3.829209 -8.538509 12.695437 12.424517 47.819061 5.542198 -30.000000 24.992437 66.294922 38.106110 62.230885 4.176867 -27.856161 -28.498190 20.450214 2.420245 -9.127625 -35.952679 24.368637 21.698038 44.176300 -7.079486 -3.535531 4.512889 12.105842 -25.348764 10.107753 10.478688 4.025720 4.396973 -1.365843 -0.759410 -15.130124 6.603261 27.702295 
